<svg width="25" height="24" viewBox="0 0 25 24" fill="none" xmlns="http://www.w3.org/2000/svg">
<path fill-rule="evenodd" clip-rule="evenodd" d="M2.5 11.9999C2.5 6.47788 6.977 1.99988 12.5 1.99988C18.023 1.99988 22.5 6.47788 22.5 11.9999C22.5 17.5219 18.023 21.9999 12.5 21.9999C6.977 21.9999 2.5 17.5219 2.5 11.9999ZM12.5001 19.9996C8.08912 19.9996 4.50012 16.4106 4.50012 11.9996C4.50012 7.58863 8.08912 3.99963 12.5001 3.99963C16.9111 3.99963 20.5001 7.58863 20.5001 11.9996C20.5001 16.4106 16.9111 19.9996 12.5001 19.9996ZM15.2047 8.39419L11.4207 13.3632L9.78772 11.2772C9.44772 10.8412 8.81772 10.7652 8.38372 11.1062C7.94872 11.4462 7.87172 12.0752 8.21272 12.5092L10.6437 15.6162C10.8337 15.8582 11.1237 15.9992 11.4317 15.9992H11.4387C11.7477 15.9982 12.0397 15.8522 12.2267 15.6052L16.7957 9.60519C17.1307 9.16518 17.0457 8.53919 16.6057 8.20419C16.1647 7.86918 15.5387 7.95518 15.2047 8.39419Z" fill="black"/>
<mask id="mask0_4_684" style="mask-type:luminance" maskUnits="userSpaceOnUse" x="2" y="1" width="21" height="21">
<path fill-rule="evenodd" clip-rule="evenodd" d="M2.5 11.9999C2.5 6.47788 6.977 1.99988 12.5 1.99988C18.023 1.99988 22.5 6.47788 22.5 11.9999C22.5 17.5219 18.023 21.9999 12.5 21.9999C6.977 21.9999 2.5 17.5219 2.5 11.9999ZM12.5001 19.9996C8.08912 19.9996 4.50012 16.4106 4.50012 11.9996C4.50012 7.58863 8.08912 3.99963 12.5001 3.99963C16.9111 3.99963 20.5001 7.58863 20.5001 11.9996C20.5001 16.4106 16.9111 19.9996 12.5001 19.9996ZM15.2047 8.39419L11.4207 13.3632L9.78772 11.2772C9.44772 10.8412 8.81772 10.7652 8.38372 11.1062C7.94872 11.4462 7.87172 12.0752 8.21272 12.5092L10.6437 15.6162C10.8337 15.8582 11.1237 15.9992 11.4317 15.9992H11.4387C11.7477 15.9982 12.0397 15.8522 12.2267 15.6052L16.7957 9.60519C17.1307 9.16518 17.0457 8.53919 16.6057 8.20419C16.1647 7.86918 15.5387 7.95518 15.2047 8.39419Z" fill="white"/>
</mask>
<g mask="url(#mask0_4_684)">
</g>
</svg>
