<svg width="184" height="127" viewBox="0 0 184 127" fill="none" xmlns="http://www.w3.org/2000/svg">
<rect x="0.681885" y="0.5" width="182.182" height="126" rx="31.5" fill="white"/>
<rect x="0.681885" y="0.5" width="182.182" height="126" rx="31.5" stroke="black"/>
<mask id="mask0_4_16" style="mask-type:alpha" maskUnits="userSpaceOnUse" x="10" y="25" width="164" height="77">
<rect x="-0.5" y="0.5" width="162.182" height="75.0747" rx="14.5" transform="matrix(-1 0 0 1 172.364 25.4626)" fill="white" stroke="black"/>
</mask>
<g mask="url(#mask0_4_16)">
<path fill-rule="evenodd" clip-rule="evenodd" d="M39.5986 71.4941C39.4963 71.705 39.1064 71.7689 38.8507 71.8137C36.7668 72.1845 27.7343 72.3762 26.8649 71.6283C26.1042 70.9891 26.5261 60.5439 27.2677 60.122C28.2265 59.553 38.6845 59.4444 39.4132 60.0261C39.9438 60.4672 40.2762 70.0174 39.5986 71.4941ZM39.2534 60.1603C38.6717 59.6745 28.4566 60.0389 27.5361 60.4863C27.0439 61.8032 26.7243 70.075 27.2037 71.2512C27.9836 71.7881 37.5403 71.7689 39.2087 71.2512C39.8607 69.685 39.6178 60.4672 39.2534 60.1603ZM65.0212 59.0416C65.2747 59.4753 65.617 59.8505 66.0258 60.1424C66.4345 60.4344 66.9004 60.6365 67.3928 60.7356C67.4079 60.7318 67.4237 60.7314 67.439 60.7346C67.4543 60.7377 67.4686 60.7444 67.4809 60.7539C67.4932 60.7635 67.5032 60.7757 67.5101 60.7897C67.5169 60.8037 67.5205 60.8191 67.5205 60.8347C67.5205 60.8503 67.5169 60.8657 67.5101 60.8797C67.5032 60.8937 67.4932 60.906 67.4809 60.9155C67.4686 60.9251 67.4543 60.9317 67.439 60.9349C67.4237 60.938 67.4079 60.9377 67.3928 60.9338C66.2678 61.2279 64.8039 60.2051 64.8039 59.08C64.7988 59.0512 64.8054 59.0215 64.8222 58.9975C64.839 58.9736 64.8646 58.9572 64.8934 58.9522C64.9222 58.9471 64.9519 58.9536 64.9759 58.9704C64.9998 58.9872 65.0162 59.0128 65.0212 59.0416ZM70.2438 53.3204V53.9597C70.2438 54.0444 70.2102 54.1257 70.1502 54.1857C70.0903 54.2456 70.009 54.2793 69.9242 54.2793C69.84 54.2777 69.7596 54.2435 69.7 54.1839C69.6404 54.1243 69.6062 54.0439 69.6046 53.9597V53.3204C69.6046 53.2357 69.6383 53.1544 69.6982 53.0944C69.7582 53.0345 69.8395 53.0008 69.9242 53.0008C70.009 53.0008 70.0903 53.0345 70.1502 53.0944C70.2102 53.1544 70.2438 53.2357 70.2438 53.3204ZM63.8706 53.9277C63.8706 54.0125 63.8369 54.0938 63.777 54.1537C63.7171 54.2137 63.6358 54.2473 63.551 54.2473C63.4662 54.2473 63.3849 54.2137 63.325 54.1537C63.265 54.0938 63.2314 54.0125 63.2314 53.9277V53.1351C63.2314 53.0503 63.265 52.969 63.325 52.9091C63.3849 52.8491 63.4662 52.8154 63.551 52.8154C63.6358 52.8154 63.7171 52.8491 63.777 52.9091C63.8369 52.969 63.8706 53.0503 63.8706 53.1351C63.8962 53.4099 63.8706 53.7296 63.8706 53.9277Z" fill="black"/>
<path fill-rule="evenodd" clip-rule="evenodd" d="M26.8073 100.17C26.8493 100.099 26.9087 100.04 26.9799 99.9978C27.5297 99.7293 30.5213 99.8635 31.1414 99.8891C31.0327 83.1218 39.867 72.6638 52.6902 69.6658C55.0426 69.116 55.049 69.0777 55.113 69.116L55.5476 67.9206C54.3203 67.8823 53.3167 66.9362 52.1916 67.128C51.3414 67.2686 50.9131 68.0229 50.0757 68.3425C48.6566 68.8795 46.1316 68.0549 45.3581 66.7061C44.9618 66.0029 45.3134 65.2742 45.0641 64.7883C44.6166 64.3984 43.3445 63.7719 42.9801 63.3181C42.2322 62.3848 42.2003 60.2945 42.5391 59.163C43.1507 57.8827 43.9839 56.7205 45.0002 55.7303C46.1057 54.665 47.0859 53.4768 47.9215 52.1889C48.9507 50.1369 48.989 47.2987 49.8392 45.1572C50.7763 43.2237 52.227 41.585 54.0326 40.4205C55.7962 39.1747 57.9225 38.5477 60.0799 38.637C62.0935 38.7648 62.8797 39.6214 63.8194 39.9155C64.7591 40.2095 64.9573 39.9155 66.4851 40.5867C67.0917 40.9563 67.6319 41.4252 68.0832 41.9738C68.2749 42.1784 68.2621 42.1912 68.5882 42.2039C68.9392 42.1775 69.2918 42.1775 69.6429 42.2039C70.2415 42.3368 70.8139 42.5679 71.3369 42.8879C74.8975 45.023 73.9386 49.3187 75.281 52.4766C76.1951 54.6244 78.7393 56.6892 78.9567 58.9329C79.0337 59.9646 78.8117 60.9966 78.3174 61.9054C76.7641 64.6349 74.5331 62.4935 73.3761 64.1619C73.0117 64.6861 72.7368 65.1975 72.0592 65.2997C71.1963 65.4148 70.0201 64.7308 69.3169 64.2258C69.1691 64.3981 69.0018 64.5525 68.8183 64.6861C68.1951 65.1062 67.526 65.4536 66.8239 65.7216L68.4475 67.9909C71.4903 67.6457 76.1632 68.6302 79.174 69.5571C79.2827 68.79 80.2287 62.4551 80.9447 62.1483C81.9355 61.7136 92.336 62.9218 92.9688 63.6057C93.4355 64.1044 92.5981 73.5971 91.6903 75.0162C91.5561 75.2335 91.0959 75.2399 90.8402 75.2463C92.336 76.2691 93.7807 77.3047 94.2985 77.6818C94.7012 76.2883 96.8171 68.9178 97.5969 67.7097C97.8207 67.3581 98.0252 67.3645 99.0544 67.7097C99.641 64.7827 100.384 61.8893 101.279 59.0416C100.943 58.4897 100.675 57.8995 100.48 57.2836C100.242 56.3082 100.207 55.2942 100.378 54.3048C99.5978 54.5669 94.9377 55.8454 94.1834 55.4746C93.9808 55.33 93.8305 55.1237 93.7551 54.8865C92.9305 53.0838 91.5178 46.9279 91.4091 44.9783C91.3643 44.7286 91.4072 44.4711 91.5305 44.2495C92.2784 43.4696 102.34 40.5739 103.19 40.9574C103.708 41.1939 105.108 45.7901 105.255 46.3334C106.476 50.431 105.856 49.5297 106.534 49.7662C107.313 50.041 107.985 51.6839 108.259 52.4446C108.534 53.2053 108.822 54.2281 108.496 54.829C108.628 55.0733 108.682 55.3528 108.648 55.6287C108.615 55.9047 108.497 56.1635 108.311 56.3695C108.514 56.5961 108.646 56.8773 108.692 57.1783C108.737 57.4793 108.694 57.787 108.566 58.0635C108.381 58.6452 107.224 59.0288 106.649 59.195C107.103 60.419 107.481 61.6701 107.78 62.9409C108.29 64.913 108.697 66.9101 109.001 68.9242C109.19 69.903 109.252 70.902 109.186 71.8967L110.235 72.3697C110.275 72.3882 110.309 72.418 110.333 72.4554C110.357 72.4928 110.369 72.5363 110.369 72.5807C110.369 72.5807 110.171 80.3283 107.62 86.7655C104.539 94.5578 99.4699 97.1659 91.7543 94.251C91.6847 94.8627 91.5342 95.4624 91.3068 96.0345C91.1917 96.239 90.8018 96.2774 90.5397 96.3029C88.2704 96.3773 85.9986 96.3068 83.7382 96.092L81.8205 108.238C82.3382 109.733 88.2129 126.776 88.1298 128.361C88.1298 128.527 88.0658 128.655 87.791 128.783C86.097 129.569 70.0456 131.666 69.4384 129.914C69.2849 129.486 68.9142 126.756 68.8439 126.239L59.8114 125.241L51.2008 125.81C51.108 126.672 50.9542 127.527 50.7405 128.367C50.6638 128.559 50.5743 128.661 50.3506 128.642C49.5004 128.559 44.9682 127.741 43.7153 127.504C38.9082 126.597 39.0169 126.52 39.1575 126.047C39.4963 124.928 42.6414 116.203 43.8687 112.131C42.0733 112.322 40.2625 112.322 38.4671 112.131C38.4477 112.2 38.4112 112.263 38.3609 112.314C38.3106 112.366 38.2482 112.404 38.1794 112.425C37.0096 112.853 26.558 112.258 25.7014 111.402C24.928 110.718 26.2256 101.142 26.8073 100.17ZM103.178 41.2323C103.107 41.1236 103.133 41.0789 102.57 41.162C100.224 41.4944 92.5533 43.9683 91.8885 44.55C91.7607 46.0138 93.6592 54.0491 94.4071 55.0207C94.9505 55.2061 98.5558 54.2856 99.1119 54.1386C103.344 53.0327 103.178 52.8601 104.143 52.6364C104.641 52.4638 104.693 52.4574 104.68 52.3871C104.678 52.3712 104.671 52.3566 104.659 52.3459C104.647 52.3353 104.632 52.3294 104.616 52.3295C104.04 52.3295 102.5 52.2848 102.123 51.8373C102.04 51.7463 101.977 51.6381 101.941 51.5203C101.904 51.4025 101.894 51.2781 101.911 51.1559C101.928 51.0338 101.972 50.9169 102.04 50.8137C102.107 50.7105 102.197 50.6235 102.302 50.5588C103.123 50.2297 103.982 50.0021 104.859 49.8812C105.121 49.8301 105.44 49.7406 105.76 49.7022C105.319 47.7078 103.862 42.2934 103.178 41.2323ZM108.669 71.6858V70.6949C108.611 69.4804 108.029 66.2906 107.857 65.4148C107.575 63.9957 107.512 63.6761 106.693 60.5949C106.693 60.5118 106.201 59.1374 106.201 59.1374C106.192 59.1136 106.189 59.0881 106.19 59.0627C106.192 59.0374 106.199 59.0127 106.212 58.9903C106.224 58.9679 106.24 58.9483 106.261 58.9329C106.281 58.9175 106.304 58.9066 106.329 58.9009C106.399 58.9009 108.061 58.4918 108.247 57.9612C108.432 57.4307 108.47 56.7914 108.004 56.5102C107.987 56.4977 107.973 56.4814 107.963 56.4625C107.953 56.4436 107.948 56.4227 107.948 56.4015C107.948 56.3803 107.953 56.3594 107.963 56.3405C107.973 56.3216 107.987 56.3053 108.004 56.2928C108.208 56.1251 108.346 55.8898 108.391 55.6294C108.437 55.3691 108.388 55.101 108.253 54.8737C108.106 54.5733 108.892 54.7203 107.959 52.566C107.723 52.0355 106.923 50.4054 106.38 50.2264C105.899 50.1795 105.413 50.2339 104.955 50.3862C104.153 50.5124 103.366 50.7136 102.602 50.9871C102.554 51.0132 102.512 51.0502 102.48 51.0951C102.448 51.1401 102.427 51.1918 102.418 51.2462C102.409 51.3007 102.413 51.3564 102.43 51.409C102.446 51.4616 102.475 51.5098 102.513 51.5497C102.794 51.7088 103.101 51.815 103.42 51.8629C105.434 52.2592 105.076 51.8181 105.338 52.5021C106.107 52.457 106.876 52.595 107.582 52.9048C107.857 52.9624 107.742 53.1414 107.544 53.1094C106.687 52.8287 105.771 52.7824 104.891 52.9752C104.38 53.0685 103.881 53.2164 103.401 53.4162C102.967 53.5928 102.581 53.8712 102.276 54.2281C102.222 54.3633 102.202 54.5098 102.217 54.6548C102.233 54.7997 102.284 54.9385 102.366 55.0591C102.519 55.2956 103.261 55.1358 103.542 55.0591C103.925 54.944 104.328 54.8481 104.705 54.7267C105.236 54.5605 105.178 54.5157 105.345 54.5285C105.931 54.6116 106.504 54.7684 107.051 54.9952C107.067 54.9969 107.082 55.0022 107.095 55.0106C107.108 55.019 107.119 55.0303 107.127 55.0436C107.135 55.0569 107.14 55.0718 107.142 55.0874C107.143 55.1029 107.141 55.1185 107.135 55.1331C107.13 55.1476 107.121 55.1607 107.11 55.1714C107.098 55.182 107.085 55.19 107.07 55.1945C107.055 55.1991 107.039 55.2002 107.024 55.1978C107.008 55.1954 106.994 55.1895 106.981 55.1805C106.491 55.0425 105.991 54.9463 105.485 54.8929C105.198 54.8929 105.383 54.8929 104.661 55.1805C104.335 55.302 104.021 55.3979 103.676 55.5129C103.454 55.589 103.225 55.6426 102.992 55.6728C102.583 56.0563 102.289 56.9512 102.839 57.1111C103.055 57.1483 103.277 57.1216 103.478 57.0343C104.942 56.5549 103.951 56.2097 107.128 56.8617C107.154 56.865 107.178 56.878 107.194 56.8982C107.211 56.9185 107.219 56.9443 107.218 56.9704C107.218 57.1366 107.109 57.0343 105.351 56.9704C105.138 56.9491 104.924 56.9491 104.712 56.9704C104.162 57.2517 103.344 57.7311 102.711 57.5457C101.937 57.2964 101.963 56.4398 102.462 55.8134C102.641 55.5961 102.66 55.66 102.506 55.6344C102.394 55.6222 102.286 55.587 102.188 55.5309C102.09 55.4748 102.005 55.399 101.937 55.3084C101.786 55.0996 101.701 54.8498 101.694 54.592C101.688 54.3342 101.759 54.0803 101.899 53.8637L100.825 54.1833C100.612 55.1734 100.63 56.1991 100.876 57.1814C100.945 57.4212 101.035 57.6544 101.145 57.8781C101.611 58.8626 101.784 58.8945 101.726 59.0799C100.838 61.9682 100.106 64.9024 99.5338 67.8695C101.944 68.7133 106.361 70.6566 108.669 71.6858ZM58.0854 116.107C55.3495 116.222 49.4685 116.433 46.7709 116.35C46.9562 117.155 47.0713 117.666 47.1033 117.781C48.3881 117.781 56.6919 116.343 58.0854 116.107ZM45.7353 115.781C47.4485 116.183 69.6877 115.314 71.5926 114.502C71.3944 113.07 69.5278 105.022 69.1507 103.379C67.4729 103.893 65.7275 104.152 63.9728 104.146C63.3336 104.479 62.2789 105.054 61.646 105.355C61.7163 105.898 61.8889 107.183 61.5054 107.566C61.1218 107.95 52.2939 111.191 44.5527 112.099C44.865 113.351 45.26 114.581 45.7353 115.781ZM69.3553 100.394C69.6496 100.305 69.9218 100.154 70.1543 99.953C70.3205 99.774 70.263 99.2307 70.1543 98.975C70.0949 98.8507 69.9894 98.7544 69.8603 98.7065C69.7042 98.6386 69.5378 98.5976 69.368 98.585C69.3173 98.5839 69.2681 98.5672 69.227 98.5373C69.186 98.5074 69.1551 98.4657 69.1384 98.4177C69.1217 98.3697 69.12 98.3178 69.1337 98.2689C69.1473 98.22 69.1755 98.1764 69.2146 98.144C69.5886 97.8289 69.849 97.4001 69.9561 96.923C69.9561 96.5714 69.8219 96.2071 69.2594 95.8874C68.6201 95.9386 66.7024 97.5239 65.8139 96.6098C64.9253 95.6957 65.9737 93.5542 64.9828 93.3752C63.992 93.1962 63.4934 96.1751 63.3208 96.5011C62.7455 97.6198 61.1985 98.4188 60.3164 99.3393C60.8491 101.245 61.2759 103.178 61.5949 105.131C62.8733 104.447 63.8194 103.852 63.9153 103.852C65.2513 103.808 68.8375 103.437 69.7708 102.484C69.9367 102.356 70.0503 102.172 70.0903 101.966C70.1303 101.76 70.094 101.547 69.9881 101.366C69.9201 101.246 69.8284 101.141 69.7185 101.057C69.6086 100.973 69.4828 100.913 69.3489 100.88C69.2941 100.867 69.2455 100.835 69.2109 100.79C69.1764 100.746 69.158 100.691 69.1588 100.634C69.1595 100.578 69.1793 100.524 69.215 100.48C69.2507 100.436 69.3001 100.406 69.3553 100.394ZM62.2341 79.1073C63.4217 78.9937 64.6147 78.9468 65.8075 78.9667C65.9609 78.9667 66.0887 79.0434 66.1335 79.1904C66.2421 79.5996 68.0512 92.8958 68.1407 93.5478C68.5242 87.1554 68.9206 80.4242 69.2146 75.4892C66.9901 79.037 66.7983 79.3886 66.4467 79.1393C65.2613 78.1645 64.1403 77.1139 63.0907 75.9942C62.8989 76.7038 62.5921 77.8608 62.2341 79.1073ZM56.385 76.8636C56.8197 76.2244 57.248 75.5851 57.4078 75.3486L55.3431 70.1516L56.385 76.8636ZM54.8956 69.5251C52.4778 70.0237 50.1204 70.7802 47.864 71.7816C47.9598 72.0821 49.1936 75.8536 50.6702 80.3539C51.3478 80.2708 55.228 79.7977 56.4234 79.6699L54.8956 69.5251ZM57.5101 76.0582L56.5001 77.5796L56.8197 79.6251L57.8106 79.4973C57.6635 78.1101 57.5612 76.7933 57.5101 76.0582ZM39.8607 82.8022C39.8687 83.6344 39.9499 84.4644 40.1036 85.2824C42.2962 84.7199 61.4223 80.0151 63.3656 81.121C64.3372 81.6835 67.5334 94.8007 67.8403 95.9833L68.0704 95.8683C67.0604 88.7663 65.718 79.4525 65.718 79.427C63.5382 79.1777 42.5391 81.5556 39.8607 82.8022ZM51.0154 96.1687C52.4473 96.0728 58.1302 95.7915 59.3256 96.5842C59.5109 96.7121 59.5876 96.7376 60.2461 99.1028C61.0963 98.2015 62.5218 97.3513 63.0012 96.3477C63.2185 95.9066 63.5701 92.6848 65.0596 92.9341C67.0668 93.2729 64.5034 97.4088 67.4695 96.1303C67.2777 95.3185 64.1326 81.7794 63.2569 81.2808C61.4031 80.226 41.1839 85.3719 38.6269 86.0943C38.7739 87.654 40.6533 95.9769 40.9985 97.4983C44.309 96.8622 47.6536 96.4183 51.0154 96.1687ZM60.8597 51.4538C60.5018 51.6967 60.5145 52.2784 60.5785 52.7003C61.0259 55.5577 63.8897 57.29 65.8778 54.5541C66.3316 53.9148 66.6832 51.8821 66.3764 51.4346C66.1718 51.1725 64.5226 51.1597 64.1902 51.1597C63.5765 51.1661 61.1794 51.262 60.8853 51.4538H60.8597ZM68.4731 51.914C68.4731 53.1158 68.8758 55.1102 69.9434 55.6855C71.6629 56.5805 73.408 55.1614 73.4528 53.314C73.5183 52.6395 73.486 51.9592 73.3569 51.294L73.293 51.262C73.3953 51.083 68.9014 51.0255 68.4987 51.4282C68.485 51.5899 68.485 51.7524 68.4987 51.914H68.4731ZM66.2485 65.8303C65.1427 66.1499 63.3592 65.9965 62.5026 65.1207C62.4846 65.1018 62.4746 65.0766 62.4746 65.0504C62.4746 65.0243 62.4846 64.9991 62.5026 64.9801C62.6496 64.8011 62.5026 65.1463 64.1646 65.3956C65.8266 65.6449 66.8302 65.3956 68.5115 64.3025C69.2842 63.5926 69.8629 62.697 70.1927 61.7008C70.881 60.0148 71.3119 58.2348 71.4711 56.4207C70.8695 56.5192 70.2521 56.4182 69.7132 56.133C69.1901 55.8271 68.7849 55.3544 68.5626 54.7906C68.7783 55.4661 68.9554 56.1534 69.0932 56.849C69.1231 56.938 69.1276 57.0337 69.1061 57.1251C69.0847 57.2166 69.0381 57.3003 68.9717 57.3667C68.5297 57.6369 68.0092 57.7496 67.4951 57.6864C67.48 57.6902 67.4642 57.6906 67.4489 57.6874C67.4336 57.6843 67.4193 57.6776 67.407 57.6681C67.3947 57.6585 67.3847 57.6463 67.3778 57.6323C67.371 57.6183 67.3674 57.6029 67.3674 57.5873C67.3674 57.5717 67.371 57.5563 67.3778 57.5423C67.3847 57.5283 67.3947 57.5161 67.407 57.5065C67.4193 57.4969 67.4336 57.4903 67.4489 57.4871C67.4642 57.484 67.48 57.4843 67.4951 57.4882C67.8743 57.446 68.2403 57.324 68.569 57.1302C68.716 57.028 68.6521 57.0919 68.6073 56.8809C68.5626 56.67 67.7316 53.6208 67.6868 53.429C67.4887 53.429 66.7344 53.3267 66.7344 53.1414C66.7344 52.956 67.3353 52.9048 67.559 52.9176C67.559 52.8345 67.5206 52.7642 67.5014 52.7003C67.4913 52.6749 67.4916 52.6464 67.5024 52.6213C67.5132 52.5961 67.5336 52.5762 67.559 52.566C67.5844 52.5559 67.6129 52.5562 67.638 52.567C67.6632 52.5778 67.683 52.5981 67.6932 52.6236C67.917 53.0583 67.7635 52.8985 68.064 52.9752C67.9487 52.3841 67.9487 51.7763 68.064 51.1853C68.4284 50.6228 70.6209 50.7506 71.3369 50.7953C70.9725 48.6539 69.5534 47.5991 68.684 45.886C68.4405 45.4883 68.1159 45.1464 67.7316 44.8824C67.5398 44.8312 67.1627 45.3107 66.9325 45.4257C66.7024 45.5408 66.4851 46.1736 66.2933 46.391C65.6903 47.0775 64.9955 47.6777 64.2285 48.1745C63.5893 48.6283 62.5921 48.6986 62.1574 49.2803C61.9738 49.775 61.8849 50.2998 61.8953 50.8273C62.7199 50.7762 66.159 50.725 66.5682 51.3131C66.9389 51.7862 66.7791 53.9468 66.2358 54.7778C64.8678 56.849 62.7647 56.9768 61.1218 55.1102C60.9452 54.8899 60.795 54.6496 60.6744 54.3943C59.447 56.312 58.4818 57.4562 58.437 59.7064C58.3859 62.5574 59.1913 67.2814 56.1038 67.8759L55.5732 69.3397C58.1302 75.7705 57.9959 75.3678 57.9959 75.4317C57.9959 75.4956 58.1174 77.3494 58.3411 79.4717C59.5685 79.3439 60.7127 79.2352 61.7291 79.1521C61.8058 78.89 62.7583 75.502 62.7391 75.4317C62.6432 75.1121 63.1227 74.4856 63.4934 73.9295C64.8838 71.9165 66.4019 69.9948 68.0384 68.1763L66.2485 65.8303ZM68.4987 68.3489C68.39 68.5151 63.7875 73.5779 63.2249 75.4381C64.2591 76.5844 65.3765 77.6528 66.5682 78.6343C66.9965 78.0718 68.1535 76.218 69.253 74.4856C69.4511 71.1424 69.5854 68.8156 69.6173 68.3297C69.2594 68.3042 68.8566 68.3233 68.5242 68.3489H68.4987ZM91.326 74.7413C92.0547 73.4628 93.0647 65.1527 92.8282 63.8742C92.8282 63.7592 92.8282 63.7208 92.2912 63.5738C90.0028 62.9793 81.9739 62.2953 81.1301 62.583C80.4908 63.8295 79.0909 71.967 79.4233 73.2199C80.0753 73.7441 89.4466 75.0673 91.3515 74.7413H91.326ZM90.8785 95.7724C91.6136 94.3277 92.157 85.0651 91.7926 84.7135C91.2493 84.1893 81.047 83.7418 80.0817 84.119C79.4425 85.4614 78.5348 93.7076 78.9119 94.8263C79.7813 95.4783 89.3699 96.1176 90.9041 95.7724H90.8785ZM76.2846 85.0587C75.8244 84.9372 72.6154 84.119 72.2318 83.8889C71.957 83.7291 71.6437 84.2468 77.0198 69.4932C76.3805 68.9051 70.7935 68.1507 69.9114 68.4256C69.9114 68.7772 69.074 83.6971 68.4156 95.6701C68.7288 95.5167 69.1827 95.2802 69.4703 95.44C70.6721 96.0792 70.7488 97.1403 69.8603 98.1759C70.0262 98.2166 70.1803 98.2956 70.3102 98.4066C70.4401 98.5177 70.5421 98.6576 70.6082 98.8152C70.7106 99.0551 70.7542 99.316 70.7353 99.5763C70.7164 99.8365 70.6355 100.088 70.4995 100.311C70.3504 100.454 70.1801 100.572 69.9945 100.663C70.1855 100.791 70.3362 100.97 70.4292 101.18C70.513 101.362 70.5628 101.557 70.5762 101.756L76.2846 85.0587ZM60.3739 124.839L68.7224 125.766C68.684 125.459 67.7444 118.05 67.4439 115.538C65.7052 115.691 63.6085 115.825 61.3647 115.947C60.994 120.556 60.3419 123.739 60.3995 124.839H60.3739ZM59.9328 124.788C59.8433 123.33 61.0451 116.024 61.0515 115.96L60.4123 115.992C58.2388 116.394 52.6391 117.385 52.0318 117.487C51.8272 119.546 51.3159 124.34 51.1944 125.325C60.7255 124.711 59.6963 124.762 59.9648 124.788H59.9328ZM26.0147 111.108C26.6539 111.619 36.0444 112.476 37.9813 112.054C38.7292 110.603 39.2598 101.347 38.8954 100.995C38.3456 100.464 28.1434 100.03 27.1909 100.4C26.59 101.736 25.6631 110.015 26.0402 111.108H26.0147Z" fill="black"/>
<path fill-rule="evenodd" clip-rule="evenodd" d="M90.8657 106.409C90.9168 106.179 90.9872 105.847 91.1725 105.77C91.8118 105.387 96.0244 105.31 96.7723 105.297C96.9385 102.248 97.2325 98.7258 97.712 97.7797C98.0252 97.1405 118.685 97.0765 119.395 97.0701C119.344 93.631 119.338 88.3892 119.395 84.9246C118.494 84.9246 113.993 84.9246 113.373 84.4132C112.581 83.7739 113.111 75.24 113.469 73.5461C113.52 73.3159 113.597 72.9835 113.776 72.9068C114.709 72.3507 125.18 72.2164 125.922 72.8109C126.312 73.1369 126.459 77.1322 126.478 77.6372C127.942 77.6372 136.993 77.4518 140.228 77.5285V72.3059C139.391 72.3059 134.475 72.4402 133.836 71.9032C133.062 71.264 133.318 60.8188 134.053 60.3969C134.788 59.975 139.378 59.8407 140.17 59.8215C140.17 58.9138 140.241 56.6253 140.247 56.5678C137.287 56.4591 129.489 56.7084 126.273 56.7084C126.273 57.712 126.331 61.2854 125.909 62.1995C125.807 62.4169 125.417 62.4808 125.161 62.5255C123.128 62.8835 114.064 63.0945 113.175 62.3402C112.287 61.5859 112.907 52.0292 113.425 51C113.459 50.926 113.512 50.8622 113.578 50.8146C114.543 50.2457 125.001 50.1754 125.724 50.7187C126.139 51.0703 126.28 55.6473 126.292 56.197C129.559 56.197 137.243 55.9477 140.285 56.0564C140.285 54.8227 140.349 53.5762 140.349 52.3488C139.442 52.3488 133.957 52.2657 133.273 51.6648C132.589 51.0639 133.273 41.3794 133.823 40.3311C133.857 40.2568 133.913 40.1944 133.983 40.1521C134.954 39.6087 145.412 39.7749 146.128 40.3758C146.671 40.8489 146.767 50.4055 146.039 51.8822C145.988 51.9646 145.912 52.0277 145.821 52.0612C145.093 52.368 141.692 52.3744 140.893 52.3744C140.893 55.2318 140.765 57.5522 140.739 59.8343C141.379 59.8343 145.738 59.7384 146.224 60.1284C146.71 60.5183 147.298 70.0686 146.62 71.6347C146.524 71.8457 146.135 71.9224 145.879 71.9671C144.185 72.2118 142.476 72.3463 140.765 72.3699V81.8051C141.372 81.8051 145.534 81.7284 146 82.1055C146.467 82.4827 147.081 92.0457 146.403 93.6118C146.307 93.8292 145.917 93.8995 145.661 93.9506C143.59 94.347 134.564 94.6922 133.676 93.9506C132.787 93.2091 133.247 83.6269 133.733 82.6105C133.768 82.5349 133.821 82.4691 133.887 82.4187C134.583 81.9968 139.429 81.8562 140.279 81.837V78.1422C136.968 78.0591 128.287 78.2445 126.535 78.2509C126.535 79.3312 126.638 83.4032 126.177 84.394C126.136 84.4798 126.062 84.5462 125.973 84.5794C125.148 84.9565 120.859 85.0332 119.983 85.0396C119.9 88.5171 119.906 93.7717 119.983 97.1852C128.575 97.1405 137.486 97.2299 139.282 97.5943C139.474 97.6327 139.787 97.6966 139.8 97.9651C139.8 97.9651 140.145 103.488 140.305 105.387C140.874 105.387 144.613 105.387 145.048 105.77C145.482 106.154 145.962 115.73 145.259 117.277C145.163 117.488 144.773 117.558 144.517 117.603C142.478 117.961 133.42 118.172 132.531 117.417C131.643 116.663 132.269 107.087 132.781 106.077C132.755 106.016 132.747 105.949 132.757 105.884C132.767 105.818 132.795 105.757 132.838 105.706C133.573 105.265 138.822 105.227 139.691 105.22C139.538 103.303 139.205 97.9651 139.205 97.9651C137.019 97.3258 100.652 97.4025 98.1083 98.0482C97.7184 98.9815 97.4691 102.184 97.2645 105.246C97.9037 105.246 102.762 105.208 103.267 105.63C103.772 106.051 104.156 115.646 103.478 117.136C103.433 117.222 103.358 117.288 103.267 117.321C102.136 117.833 91.6711 118.063 90.7506 117.277C90.5924 117.085 90.5004 116.847 90.4885 116.599C90.1881 114.656 90.4502 108.327 90.8657 106.409ZM125.589 50.7955C125.02 50.3224 114.818 50.6612 113.872 51.1215C113.635 52.1304 113.498 53.1603 113.463 54.1962C117.56 53.7807 123.096 54.1003 125.922 54.1962C125.909 53.8127 125.807 50.9489 125.589 50.7763V50.7955ZM125.928 54.5478C121.274 54.6948 115.751 54.4519 113.444 54.4775C113.373 55.6089 113.124 60.9083 113.54 61.8863C114.013 62.2123 117.739 62.2698 118.308 62.2762C119.683 62.2762 124.215 62.2762 125.545 61.8927C126.005 60.774 125.96 55.8071 125.928 54.5286V54.5478ZM145.962 40.427C145.393 39.9284 135.172 40.0242 134.238 40.427C134.028 41.1395 133.896 41.8724 133.842 42.6132C137.971 42.4914 142.104 42.7052 146.198 43.2524C146.192 43.0223 146.147 40.5932 145.962 40.427ZM145.623 51.5178C146.141 50.3608 146.211 44.9784 146.198 43.4697C145.661 43.4058 134.053 42.8305 133.816 42.8305C133.676 44.109 133.177 50.0731 133.625 51.1918C134.481 51.8119 144.102 51.9333 145.623 51.5178ZM146.064 60.1667C145.482 59.7001 135.287 60.2051 134.347 60.6781C134.138 61.632 134.022 62.604 134.002 63.5803C133.938 63.5803 143.041 63.2223 146.435 63.331C146.416 62.9538 146.262 60.3202 146.064 60.1667ZM134.014 93.4073C134.718 93.8675 144.146 93.81 146.013 93.2155C146.473 92.0713 146.333 86.8231 146.269 85.4871C146.205 85.4871 137.466 86.1647 133.81 85.7364C133.746 86.9062 133.573 92.4101 134.014 93.4009V93.4073ZM134.168 82.6297C133.96 83.586 133.842 84.5598 133.816 85.5382C133.752 85.5382 142.836 85.1803 146.256 85.2825C146.227 84.2549 146.118 83.2311 145.93 82.2206C145.885 82.0927 145.93 82.0671 145.355 82.0032C143.066 81.7475 134.986 82.2142 134.168 82.6233V82.6297ZM146.198 71.2576C146.652 70.1133 146.512 64.9035 146.448 63.5355C146.371 63.5355 137.658 64.2131 133.989 63.7848C133.925 64.961 133.746 70.433 134.193 71.4557C135.056 72.0183 144.658 71.7498 146.198 71.2576ZM132.698 109.388C132.621 110.577 132.378 115.864 132.794 116.867C133.471 117.34 142.938 117.436 144.798 116.867C145.259 115.755 145.214 110.75 145.182 109.414C141.059 109.574 137.313 109.388 132.698 109.388ZM133.126 106.103C132.889 107.11 132.75 108.137 132.71 109.171C136.776 108.762 142.504 109.088 145.176 109.209C145.176 108.807 145.054 105.949 144.843 105.777C144.268 105.304 134.072 105.642 133.126 106.103ZM125.807 72.894C125.219 72.4018 115.016 72.7726 114.089 73.22C113.846 74.2694 113.705 75.3398 113.667 76.4163C116.442 76.2692 123.346 75.8282 126.133 76.1733C126.101 75.809 125.992 73.0666 125.807 72.894ZM125.743 83.9721C126.209 82.8534 126.158 77.7395 126.12 76.4035C125.219 76.314 118.698 76.7231 115.668 76.6975C114.895 76.6975 114.198 76.6656 113.635 76.6464C113.565 77.7842 113.329 82.9813 113.738 83.9657C114.575 84.5602 124.189 84.4643 125.743 83.9721ZM103.158 105.777C102.583 105.304 92.3871 105.642 91.4346 106.103C91.2003 107.112 91.0633 108.142 91.0255 109.177C95.0527 108.768 100.883 109.094 103.484 109.177C103.478 108.839 103.369 105.968 103.158 105.796V105.777ZM91.1022 116.867C91.799 117.34 101.266 117.436 103.107 116.867C103.574 115.762 103.529 110.737 103.491 109.408C99.1886 109.574 95.9604 109.408 91.0127 109.408C90.936 110.584 90.6931 115.889 91.1022 116.887V116.867Z" fill="black"/>
</g>
</svg>
