<svg width="36" height="36" viewBox="0 0 36 36" fill="none" xmlns="http://www.w3.org/2000/svg">
<g clip-path="url(#clip0_1_2663)">
<path d="M25 0.5H11C5.20101 0.5 0.5 5.20101 0.5 11V25C0.5 30.799 5.20101 35.5 11 35.5H25C30.799 35.5 35.5 30.799 35.5 25V11C35.5 5.20101 30.799 0.5 25 0.5Z" fill="#1B1B1B"/>
<path d="M25 0.5H11C5.20101 0.5 0.5 5.20101 0.5 11V25C0.5 30.799 5.20101 35.5 11 35.5H25C30.799 35.5 35.5 30.799 35.5 25V11C35.5 5.20101 30.799 0.5 25 0.5Z" fill="#CEE741"/>
<g clip-path="url(#clip1_1_2663)">
<path d="M12 23.2499V12.7499C12 12.4847 12.1054 12.2304 12.2929 12.0428C12.4804 11.8553 12.7348 11.7499 13 11.7499H16.69C16.9184 11.7433 17.1423 11.8151 17.3242 11.9534C17.5062 12.0916 17.6353 12.2881 17.69 12.5099L18 13.7499H24C24.2652 13.7499 24.5196 13.8553 24.7071 14.0428C24.8946 14.2304 25 14.4847 25 14.7499V23.2499C25 23.5152 24.8946 23.7695 24.7071 23.957C24.5196 24.1446 24.2652 24.2499 24 24.2499H13C12.7348 24.2499 12.4804 24.1446 12.2929 23.957C12.1054 23.7695 12 23.5152 12 23.2499Z" stroke="black" stroke-linecap="round" stroke-linejoin="round"/>
<path d="M16 20L17.5 21L20.5 17" stroke="black" stroke-linecap="round" stroke-linejoin="round"/>
</g>
</g>
<defs>
<clipPath id="clip0_1_2663">
<rect width="35" height="35" fill="white" transform="translate(0.5 0.5)"/>
</clipPath>
<clipPath id="clip1_1_2663">
<rect width="14" height="14" fill="white" transform="translate(11.5 11)"/>
</clipPath>
</defs>
</svg>
