<svg width="36" height="36" viewBox="0 0 36 36" fill="none" xmlns="http://www.w3.org/2000/svg">
<g clip-path="url(#clip0_4_2065)">
<path d="M25 0.5H11C5.20101 0.5 0.5 5.20101 0.5 11V25C0.5 30.799 5.20101 35.5 11 35.5H25C30.799 35.5 35.5 30.799 35.5 25V11C35.5 5.20101 30.799 0.5 25 0.5Z" fill="#1B1B1B"/>
<path d="M25 0.5H11C5.20101 0.5 0.5 5.20101 0.5 11V25C0.5 30.799 5.20101 35.5 11 35.5H25C30.799 35.5 35.5 30.799 35.5 25V11C35.5 5.20101 30.799 0.5 25 0.5Z" fill="#FA4E4E"/>
<g clip-path="url(#clip1_4_2065)">
<path d="M19.0023 12.1573C18.9184 11.9935 18.7909 11.8561 18.6339 11.7601C18.4769 11.6641 18.2964 11.6133 18.1123 11.6133C17.9283 11.6133 17.7478 11.6641 17.5908 11.7601C17.4337 11.8561 17.3062 11.9935 17.2223 12.1573L11.7223 23.1573C11.6456 23.3095 11.6091 23.4788 11.6162 23.6492C11.6234 23.8195 11.6739 23.9851 11.7631 24.1304C11.8523 24.2757 11.9771 24.3958 12.1257 24.4792C12.2744 24.5627 12.4419 24.6068 12.6123 24.6073H23.6123C23.7828 24.6068 23.9503 24.5627 24.0989 24.4792C24.2476 24.3958 24.3724 24.2757 24.4616 24.1304C24.5507 23.9851 24.6013 23.8195 24.6084 23.6492C24.6156 23.4788 24.579 23.3095 24.5023 23.1573L19.0023 12.1573Z" stroke="white" stroke-linecap="round" stroke-linejoin="round"/>
<path d="M18.1123 16.1074V19.3574" stroke="white" stroke-linecap="round" stroke-linejoin="round"/>
<path d="M18.1123 22.1074C17.9742 22.1074 17.8623 21.9955 17.8623 21.8574C17.8623 21.7193 17.9742 21.6074 18.1123 21.6074" stroke="white" stroke-linecap="round" stroke-linejoin="round"/>
<path d="M18.1123 22.1074C18.2504 22.1074 18.3623 21.9955 18.3623 21.8574C18.3623 21.7193 18.2504 21.6074 18.1123 21.6074" stroke="white" stroke-linecap="round" stroke-linejoin="round"/>
</g>
</g>
<defs>
<clipPath id="clip0_4_2065">
<rect width="35" height="35" fill="white" transform="translate(0.5 0.5)"/>
</clipPath>
<clipPath id="clip1_4_2065">
<rect width="14" height="14" fill="white" transform="translate(11.1123 11.1074)"/>
</clipPath>
</defs>
</svg>
