<svg width="15" height="14" viewBox="0 0 15 14" fill="none" xmlns="http://www.w3.org/2000/svg">
<path d="M0.681885 12.2499V1.74994C0.681885 1.48472 0.787242 1.23037 0.974778 1.04283C1.16231 0.855293 1.41666 0.749936 1.68188 0.749936H5.37188C5.60031 0.743281 5.82414 0.815069 6.00609 0.95335C6.18803 1.09163 6.31713 1.28806 6.37188 1.50994L6.68188 2.74994H12.6819C12.9471 2.74994 13.2015 2.85529 13.389 3.04283C13.5765 3.23037 13.6819 3.48472 13.6819 3.74994V12.2499C13.6819 12.5152 13.5765 12.7695 13.389 12.957C13.2015 13.1446 12.9471 13.2499 12.6819 13.2499H1.68188C1.41666 13.2499 1.16231 13.1446 0.974778 12.957C0.787242 12.7695 0.681885 12.5152 0.681885 12.2499Z" stroke="white" stroke-linecap="round" stroke-linejoin="round"/>
<path d="M4.68188 9L6.18188 10L9.18188 6" stroke="white" stroke-linecap="round" stroke-linejoin="round"/>
</svg>
