<svg width="25" height="25" viewBox="0 0 25 25" fill="none" xmlns="http://www.w3.org/2000/svg">
<path opacity="0.3" d="M12.5 4.5C8.09 4.5 4.5 8.09 4.5 12.5C4.5 16.91 8.09 20.5 12.5 20.5C16.91 20.5 20.5 16.91 20.5 12.5C20.5 8.09 16.91 4.5 12.5 4.5ZM16.5 15.09L15.09 16.5L12.5 13.91L9.91 16.5L8.5 15.09L11.09 12.5L8.5 9.91L9.91 8.5L12.5 11.09L15.09 8.5L16.5 9.91L13.91 12.5L16.5 15.09Z" fill="#858585"/>
<path d="M15.09 8.5L12.5 11.09L9.91 8.5L8.5 9.91L11.09 12.5L8.5 15.09L9.91 16.5L12.5 13.91L15.09 16.5L16.5 15.09L13.91 12.5L16.5 9.91L15.09 8.5ZM12.5 2.5C6.97 2.5 2.5 6.97 2.5 12.5C2.5 18.03 6.97 22.5 12.5 22.5C18.03 22.5 22.5 18.03 22.5 12.5C22.5 6.97 18.03 2.5 12.5 2.5ZM12.5 20.5C8.09 20.5 4.5 16.91 4.5 12.5C4.5 8.09 8.09 4.5 12.5 4.5C16.91 4.5 20.5 8.09 20.5 12.5C20.5 16.91 16.91 20.5 12.5 20.5Z" fill="#CEE741"/>
</svg>
